# xmcd CD database file
#
# Track frame offsets:
#	150
#	18218
#	41190
#	60635
#	73428
#	93513
#	119318
#	142938
#	159298
#	186500
#	207860
#	228745
#	254835
#
# Disc length: 3743 seconds
#
# Revision: 0
# Processed by: cddbd v1.4PL0 Copyright (c) Steve Scherf et al.
# Submitted via: CDex 1.40Release
#
DISCID=c30e9d0d
DTITLE=Jimmy Johnson - Heap See
DYEAR=1900
DGENRE=Blues
TTITLE0=Chicken Head
TTITLE1=When my first wife quit me
TTITLE2=Heap see
TTITLE3=I've the same old blues
TTITLE4=Little by little
TTITLE5=Cold cold feeling
TTITLE6=You don't know what love is
TTITLE7=Happy home
TTITLE8=Missing link
TTITLE9=Here am I
TTITLE10=Dead or alive
TTITLE11=Call the plumber
TTITLE12=Gangster of love
EXTD=ID3G: 0
EXTT0=
EXTT1=
EXTT2=
EXTT3=
EXTT4=
EXTT5=
EXTT6=
EXTT7=
EXTT8=
EXTT9=
EXTT10=
EXTT11=
EXTT12=
PLAYORDER=
